<svg width="35" height="34" viewBox="0 0 35 34" fill="none" xmlns="http://www.w3.org/2000/svg">
<path d="M30.1949 27.2981C31.923 25.3074 33.125 22.9474 33.699 20.4179C34.2731 17.8884 34.2024 15.2637 33.4929 12.7658C32.7834 10.268 31.4559 7.97049 29.6229 6.06771C27.7898 4.16493 25.5051 2.71284 22.9619 1.83427C20.4187 0.955698 17.692 0.6765 15.0123 1.02029C12.3325 1.36408 9.77874 2.32075 7.56687 3.80937C5.355 5.29798 3.55014 7.27475 2.30498 9.57244C1.05981 11.8701 0.410968 14.4212 0.413337 17.0097C0.414245 20.7728 1.79928 24.4153 4.32541 27.2981L4.30134 27.3177C4.38557 27.4145 4.48184 27.4975 4.56848 27.5931C4.67678 27.7117 4.79351 27.8235 4.90542 27.9387C5.24235 28.289 5.58892 28.6254 5.95233 28.9411C6.06303 29.0378 6.17735 29.1277 6.28926 29.2199C6.67433 29.5379 7.07023 29.8397 7.48057 30.1208C7.53352 30.1554 7.58165 30.2003 7.6346 30.236V30.2222C10.453 32.1211 13.8151 33.1402 17.2613 33.1402C20.7076 33.1402 24.0697 32.1211 26.8881 30.2222V30.236C26.941 30.2003 26.988 30.1554 27.0421 30.1208C27.4513 29.8386 27.8484 29.5379 28.2334 29.2199C28.3453 29.1277 28.4597 29.0367 28.5704 28.9411C28.9338 28.6242 29.2803 28.289 29.6173 27.9387C29.7292 27.8235 29.8447 27.7117 29.9542 27.5931C30.0397 27.4975 30.1371 27.4145 30.2214 27.3166L30.1949 27.2981ZM17.2601 7.7928C18.3311 7.7928 19.3781 8.09687 20.2686 8.66655C21.1591 9.23623 21.8531 10.0459 22.263 10.9933C22.6728 11.9406 22.7801 12.9831 22.5711 13.9888C22.3622 14.9945 21.8465 15.9183 21.0892 16.6433C20.3319 17.3684 19.367 17.8622 18.3166 18.0622C17.2662 18.2623 16.1774 18.1596 15.1879 17.7672C14.1984 17.3748 13.3527 16.7103 12.7577 15.8577C12.1627 15.0051 11.8451 14.0027 11.8451 12.9773C11.8451 11.6023 12.4156 10.2836 13.4311 9.31131C14.4466 8.33903 15.824 7.7928 17.2601 7.7928ZM7.64182 27.2981C7.6627 25.7854 8.3048 24.3413 9.42922 23.2783C10.5536 22.2154 12.07 21.619 13.6501 21.6182H20.8702C22.4503 21.619 23.9667 22.2154 25.0911 23.2783C26.2155 24.3413 26.8576 25.7854 26.8785 27.2981C24.2393 29.5751 20.8127 30.8352 17.2601 30.8352C13.7076 30.8352 10.2809 29.5751 7.64182 27.2981Z" fill="#348EE0"/>
</svg>
