<svg width="28" height="28" viewBox="0 0 28 28" fill="none" xmlns="http://www.w3.org/2000/svg">
<path d="M13.2601 0.43493C9.30781 0.541396 5.80297 2.38173 3.4167 5.2411L1.44802 3.24867C1.34288 3.14357 1.20959 3.07255 1.06494 3.04458C0.920288 3.01661 0.770756 3.03293 0.635186 3.09148C0.499617 3.15004 0.384077 3.24821 0.303129 3.37362C0.222181 3.49903 0.179446 3.64607 0.180311 3.79621V10.321C0.180311 10.7469 0.508424 11.0815 0.926022 11.0815H7.32422C7.99536 11.0815 8.32348 10.2602 7.84622 9.7887L5.53452 7.41604C7.45845 5.02817 10.3518 3.47681 13.6031 3.47681C20.0461 3.47681 25.1467 9.46931 23.8343 16.2679C23.0289 20.4809 19.6434 23.8422 15.5121 24.5874C9.84473 25.6217 4.80372 21.941 3.50618 16.7394C3.32721 16.1006 2.73064 15.6443 2.07442 15.6443C1.10499 15.6443 0.374196 16.5721 0.612823 17.5151C2.08933 23.4315 7.33914 27.8118 13.6031 27.8118C21.1497 27.8118 27.2347 21.4695 27.0259 13.7279C26.8171 6.30575 20.5382 0.252417 13.2601 0.43493ZM16.586 14.1234C16.586 12.4503 15.2437 11.0815 13.6031 11.0815C11.9625 11.0815 10.6203 12.4503 10.6203 14.1234C10.6203 15.7964 11.9625 17.1653 13.6031 17.1653C15.2437 17.1653 16.586 15.7964 16.586 14.1234Z" fill="#348EE0" fill-opacity="0.58"/>
</svg>
